# xmcd
# 
# Track frame offsets:
#     150
#     13621
#     28936
#     48845
#     70984
#     89320
#     105421
# 
# Disc length: 1576
# 
# Revision: 0
# Processed by: cddbd v1.5.2PL0 Copyright (c) Steve Scherf et al.
# Submitted via: fre:ac v1.0.27
# 
DISCID=50062607
DTITLE=Ben Marshal - Ben Marshal
DYEAR=2013
DGENRE=Country
TTITLE0=Feeling of Madness
TTITLE1=Turn Back Time
TTITLE2=Vegas Remedy
TTITLE3=Morning Song
TTITLE4=Wrong About Everything
TTITLE5=Rather Be Shot Down
TTITLE6=Wildfire
EXTD=
EXTT0=
EXTT1=
EXTT2=
EXTT3=
EXTT4=
EXTT5=
EXTT6=
PLAYORDER=
